<svg xmlns="http://www.w3.org/2000/svg" width="563.006" height="585" viewBox="0 0 563.006 585">
    <defs>
        <linearGradient id="prefix__linear-gradient" x2="1" y1=".5" y2=".5" gradientUnits="objectBoundingBox">
            <stop offset="0" stop-color="#c7c9cb"/>
            <stop offset=".295" stop-color="#a1a3a5"/>
            <stop offset=".49" stop-color="#8e9091"/>
            <stop offset=".798" stop-color="#b0b2b3"/>
            <stop offset="1" stop-color="#c2c4c6"/>
        </linearGradient>
        <clipPath id="prefix__clip-path">
            <path d="M0 0H563.006V585H0z" style="fill:none"/>
        </clipPath>
        <style>
            .prefix__cls-3{fill:url(#prefix__linear-gradient)}
        </style>
    </defs>
    <g id="prefix__Celsius_Degree_Symbol" data-name="Celsius Degree Symbol">
        <g transform="translate(-2359 -4577)">
            <path id="prefix__Celsius_Degree_Symbol-2" d="M23.866 26.669a17.5 17.5 0 1017.5 17.5 17.526 17.526 0 00-17.5-17.5zm0 24.767a7.266 7.266 0 117.262-7.269 7.273 7.273 0 01-7.262 7.269z" class="prefix__cls-3" data-name="Celsius Degree Symbol" transform="translate(2352.643 4550.331)"/>
        </g>
        <g transform="translate(-2293 -4577)">
            <path id="prefix__Celsius_Degree_Symbol-3" d="M23.866 26.669a17.5 17.5 0 1017.5 17.5 17.526 17.526 0 00-17.5-17.5zm0 24.767a7.266 7.266 0 117.262-7.269 7.273 7.273 0 01-7.262 7.269z" class="prefix__cls-3" data-name="Celsius Degree Symbol" transform="translate(2352.643 4550.331)"/>
        </g>
        <g transform="translate(-2227 -4577)">
            <path id="prefix__Celsius_Degree_Symbol-4" d="M23.866 26.669a17.5 17.5 0 1017.5 17.5 17.526 17.526 0 00-17.5-17.5zm0 24.767a7.266 7.266 0 117.262-7.269 7.273 7.273 0 01-7.262 7.269z" class="prefix__cls-3" data-name="Celsius Degree Symbol" transform="translate(2352.643 4550.331)"/>
        </g>
        <g transform="translate(-2161 -4577)">
            <path id="prefix__Celsius_Degree_Symbol-5" d="M23.866 26.669a17.5 17.5 0 1017.5 17.5 17.526 17.526 0 00-17.5-17.5zm0 24.767a7.266 7.266 0 117.262-7.269 7.273 7.273 0 01-7.262 7.269z" class="prefix__cls-3" data-name="Celsius Degree Symbol" transform="translate(2352.643 4550.331)"/>
        </g>
        <g transform="translate(-2095 -4577)">
            <path id="prefix__Celsius_Degree_Symbol-6" d="M23.866 26.669a17.5 17.5 0 1017.5 17.5 17.526 17.526 0 00-17.5-17.5zm0 24.767a7.266 7.266 0 117.262-7.269 7.273 7.273 0 01-7.262 7.269z" class="prefix__cls-3" data-name="Celsius Degree Symbol" transform="translate(2352.643 4550.331)"/>
        </g>
        <g transform="translate(-2029 -4577)">
            <path id="prefix__Celsius_Degree_Symbol-7" d="M23.866 26.669a17.5 17.5 0 1017.5 17.5 17.526 17.526 0 00-17.5-17.5zm0 24.767a7.266 7.266 0 117.262-7.269 7.273 7.273 0 01-7.262 7.269z" class="prefix__cls-3" data-name="Celsius Degree Symbol" transform="translate(2352.643 4550.331)"/>
        </g>
        <g transform="translate(-1963 -4577)">
            <path id="prefix__Celsius_Degree_Symbol-8" d="M23.866 26.669a17.5 17.5 0 1017.5 17.5 17.526 17.526 0 00-17.5-17.5zm0 24.767a7.266 7.266 0 117.262-7.269 7.273 7.273 0 01-7.262 7.269z" class="prefix__cls-3" data-name="Celsius Degree Symbol" transform="translate(2352.643 4550.331)"/>
        </g>
        <g transform="translate(-1897 -4577)">
            <path id="prefix__Celsius_Degree_Symbol-9" d="M23.866 26.669a17.5 17.5 0 1017.5 17.5 17.526 17.526 0 00-17.5-17.5zm0 24.767a7.266 7.266 0 117.262-7.269 7.273 7.273 0 01-7.262 7.269z" class="prefix__cls-3" data-name="Celsius Degree Symbol" transform="translate(2352.643 4550.331)"/>
        </g>
        <g transform="translate(-1831 -4577)">
            <path id="prefix__Celsius_Degree_Symbol-10" d="M23.866 26.669a17.5 17.5 0 1017.5 17.5 17.526 17.526 0 00-17.5-17.5zm0 24.767a7.266 7.266 0 117.262-7.269 7.273 7.273 0 01-7.262 7.269z" class="prefix__cls-3" data-name="Celsius Degree Symbol" transform="translate(2352.643 4550.331)"/>
        </g>
        <g transform="translate(-2359 -4510)">
            <path id="prefix__Celsius_Degree_Symbol-11" d="M23.866 26.669a17.5 17.5 0 1017.5 17.5 17.526 17.526 0 00-17.5-17.5zm0 24.767a7.266 7.266 0 117.262-7.269 7.273 7.273 0 01-7.262 7.269z" class="prefix__cls-3" data-name="Celsius Degree Symbol" transform="translate(2352.643 4550.331)"/>
        </g>
        <g transform="translate(-2293 -4510)">
            <path id="prefix__Celsius_Degree_Symbol-12" d="M23.866 26.669a17.5 17.5 0 1017.5 17.5 17.526 17.526 0 00-17.5-17.5zm0 24.767a7.266 7.266 0 117.262-7.269 7.273 7.273 0 01-7.262 7.269z" class="prefix__cls-3" data-name="Celsius Degree Symbol" transform="translate(2352.643 4550.331)"/>
        </g>
        <g transform="translate(-2227 -4510)">
            <path id="prefix__Celsius_Degree_Symbol-13" d="M23.866 26.669a17.5 17.5 0 1017.5 17.5 17.526 17.526 0 00-17.5-17.5zm0 24.767a7.266 7.266 0 117.262-7.269 7.273 7.273 0 01-7.262 7.269z" class="prefix__cls-3" data-name="Celsius Degree Symbol" transform="translate(2352.643 4550.331)"/>
        </g>
        <g transform="translate(-2161 -4510)">
            <path id="prefix__Celsius_Degree_Symbol-14" d="M23.866 26.669a17.5 17.5 0 1017.5 17.5 17.526 17.526 0 00-17.5-17.5zm0 24.767a7.266 7.266 0 117.262-7.269 7.273 7.273 0 01-7.262 7.269z" class="prefix__cls-3" data-name="Celsius Degree Symbol" transform="translate(2352.643 4550.331)"/>
        </g>
        <g transform="translate(-2095 -4510)">
            <path id="prefix__Celsius_Degree_Symbol-15" d="M23.866 26.669a17.5 17.5 0 1017.5 17.5 17.526 17.526 0 00-17.5-17.5zm0 24.767a7.266 7.266 0 117.262-7.269 7.273 7.273 0 01-7.262 7.269z" class="prefix__cls-3" data-name="Celsius Degree Symbol" transform="translate(2352.643 4550.331)"/>
        </g>
        <g transform="translate(-2029 -4510)">
            <path id="prefix__Celsius_Degree_Symbol-16" d="M23.866 26.669a17.5 17.5 0 1017.5 17.5 17.526 17.526 0 00-17.5-17.5zm0 24.767a7.266 7.266 0 117.262-7.269 7.273 7.273 0 01-7.262 7.269z" class="prefix__cls-3" data-name="Celsius Degree Symbol" transform="translate(2352.643 4550.331)"/>
        </g>
        <g transform="translate(-1963 -4510)">
            <path id="prefix__Celsius_Degree_Symbol-17" d="M23.866 26.669a17.5 17.5 0 1017.5 17.5 17.526 17.526 0 00-17.5-17.5zm0 24.767a7.266 7.266 0 117.262-7.269 7.273 7.273 0 01-7.262 7.269z" class="prefix__cls-3" data-name="Celsius Degree Symbol" transform="translate(2352.643 4550.331)"/>
        </g>
        <g transform="translate(-1897 -4510)">
            <path id="prefix__Celsius_Degree_Symbol-18" d="M23.866 26.669a17.5 17.5 0 1017.5 17.5 17.526 17.526 0 00-17.5-17.5zm0 24.767a7.266 7.266 0 117.262-7.269 7.273 7.273 0 01-7.262 7.269z" class="prefix__cls-3" data-name="Celsius Degree Symbol" transform="translate(2352.643 4550.331)"/>
        </g>
        <g transform="translate(-1831 -4510)">
            <path id="prefix__Celsius_Degree_Symbol-19" d="M23.866 26.669a17.5 17.5 0 1017.5 17.5 17.526 17.526 0 00-17.5-17.5zm0 24.767a7.266 7.266 0 117.262-7.269 7.273 7.273 0 01-7.262 7.269z" class="prefix__cls-3" data-name="Celsius Degree Symbol" transform="translate(2352.643 4550.331)"/>
        </g>
        <g transform="translate(-2359 -4443)">
            <path id="prefix__Celsius_Degree_Symbol-20" d="M23.866 26.669a17.5 17.5 0 1017.5 17.5 17.526 17.526 0 00-17.5-17.5zm0 24.767a7.266 7.266 0 117.262-7.269 7.273 7.273 0 01-7.262 7.269z" class="prefix__cls-3" data-name="Celsius Degree Symbol" transform="translate(2352.643 4550.331)"/>
        </g>
        <g transform="translate(-2293 -4443)">
            <path id="prefix__Celsius_Degree_Symbol-21" d="M23.866 26.669a17.5 17.5 0 1017.5 17.5 17.526 17.526 0 00-17.5-17.5zm0 24.767a7.266 7.266 0 117.262-7.269 7.273 7.273 0 01-7.262 7.269z" class="prefix__cls-3" data-name="Celsius Degree Symbol" transform="translate(2352.643 4550.331)"/>
        </g>
        <g transform="translate(-2227 -4443)">
            <path id="prefix__Celsius_Degree_Symbol-22" d="M23.866 26.669a17.5 17.5 0 1017.5 17.5 17.526 17.526 0 00-17.5-17.5zm0 24.767a7.266 7.266 0 117.262-7.269 7.273 7.273 0 01-7.262 7.269z" class="prefix__cls-3" data-name="Celsius Degree Symbol" transform="translate(2352.643 4550.331)"/>
        </g>
        <g transform="translate(-2161 -4443)">
            <path id="prefix__Celsius_Degree_Symbol-23" d="M23.866 26.669a17.5 17.5 0 1017.5 17.5 17.526 17.526 0 00-17.5-17.5zm0 24.767a7.266 7.266 0 117.262-7.269 7.273 7.273 0 01-7.262 7.269z" class="prefix__cls-3" data-name="Celsius Degree Symbol" transform="translate(2352.643 4550.331)"/>
        </g>
        <g transform="translate(-2095 -4443)">
            <path id="prefix__Celsius_Degree_Symbol-24" d="M23.866 26.669a17.5 17.5 0 1017.5 17.5 17.526 17.526 0 00-17.5-17.5zm0 24.767a7.266 7.266 0 117.262-7.269 7.273 7.273 0 01-7.262 7.269z" class="prefix__cls-3" data-name="Celsius Degree Symbol" transform="translate(2352.643 4550.331)"/>
        </g>
        <g transform="translate(-2029 -4443)">
            <path id="prefix__Celsius_Degree_Symbol-25" d="M23.866 26.669a17.5 17.5 0 1017.5 17.5 17.526 17.526 0 00-17.5-17.5zm0 24.767a7.266 7.266 0 117.262-7.269 7.273 7.273 0 01-7.262 7.269z" class="prefix__cls-3" data-name="Celsius Degree Symbol" transform="translate(2352.643 4550.331)"/>
        </g>
        <g transform="translate(-1963 -4443)">
            <path id="prefix__Celsius_Degree_Symbol-26" d="M23.866 26.669a17.5 17.5 0 1017.5 17.5 17.526 17.526 0 00-17.5-17.5zm0 24.767a7.266 7.266 0 117.262-7.269 7.273 7.273 0 01-7.262 7.269z" class="prefix__cls-3" data-name="Celsius Degree Symbol" transform="translate(2352.643 4550.331)"/>
        </g>
        <g transform="translate(-1897 -4443)">
            <path id="prefix__Celsius_Degree_Symbol-27" d="M23.866 26.669a17.5 17.5 0 1017.5 17.5 17.526 17.526 0 00-17.5-17.5zm0 24.767a7.266 7.266 0 117.262-7.269 7.273 7.273 0 01-7.262 7.269z" class="prefix__cls-3" data-name="Celsius Degree Symbol" transform="translate(2352.643 4550.331)"/>
        </g>
        <g transform="translate(-1831 -4443)">
            <path id="prefix__Celsius_Degree_Symbol-28" d="M23.866 26.669a17.5 17.5 0 1017.5 17.5 17.526 17.526 0 00-17.5-17.5zm0 24.767a7.266 7.266 0 117.262-7.269 7.273 7.273 0 01-7.262 7.269z" class="prefix__cls-3" data-name="Celsius Degree Symbol" transform="translate(2352.643 4550.331)"/>
        </g>
        <g transform="translate(-2359 -4376)">
            <path id="prefix__Celsius_Degree_Symbol-29" d="M23.866 26.669a17.5 17.5 0 1017.5 17.5 17.526 17.526 0 00-17.5-17.5zm0 24.767a7.266 7.266 0 117.262-7.269 7.273 7.273 0 01-7.262 7.269z" class="prefix__cls-3" data-name="Celsius Degree Symbol" transform="translate(2352.643 4550.331)"/>
        </g>
        <g transform="translate(-2293 -4376)">
            <path id="prefix__Celsius_Degree_Symbol-30" d="M23.866 26.669a17.5 17.5 0 1017.5 17.5 17.526 17.526 0 00-17.5-17.5zm0 24.767a7.266 7.266 0 117.262-7.269 7.273 7.273 0 01-7.262 7.269z" class="prefix__cls-3" data-name="Celsius Degree Symbol" transform="translate(2352.643 4550.331)"/>
        </g>
        <g transform="translate(-2227 -4376)">
            <path id="prefix__Celsius_Degree_Symbol-31" d="M23.866 26.669a17.5 17.5 0 1017.5 17.5 17.526 17.526 0 00-17.5-17.5zm0 24.767a7.266 7.266 0 117.262-7.269 7.273 7.273 0 01-7.262 7.269z" class="prefix__cls-3" data-name="Celsius Degree Symbol" transform="translate(2352.643 4550.331)"/>
        </g>
        <g transform="translate(-2161 -4376)">
            <path id="prefix__Celsius_Degree_Symbol-32" d="M23.866 26.669a17.5 17.5 0 1017.5 17.5 17.526 17.526 0 00-17.5-17.5zm0 24.767a7.266 7.266 0 117.262-7.269 7.273 7.273 0 01-7.262 7.269z" class="prefix__cls-3" data-name="Celsius Degree Symbol" transform="translate(2352.643 4550.331)"/>
        </g>
        <g transform="translate(-2095 -4376)">
            <path id="prefix__Celsius_Degree_Symbol-33" d="M23.866 26.669a17.5 17.5 0 1017.5 17.5 17.526 17.526 0 00-17.5-17.5zm0 24.767a7.266 7.266 0 117.262-7.269 7.273 7.273 0 01-7.262 7.269z" class="prefix__cls-3" data-name="Celsius Degree Symbol" transform="translate(2352.643 4550.331)"/>
        </g>
        <g transform="translate(-2029 -4376)">
            <path id="prefix__Celsius_Degree_Symbol-34" d="M23.866 26.669a17.5 17.5 0 1017.5 17.5 17.526 17.526 0 00-17.5-17.5zm0 24.767a7.266 7.266 0 117.262-7.269 7.273 7.273 0 01-7.262 7.269z" class="prefix__cls-3" data-name="Celsius Degree Symbol" transform="translate(2352.643 4550.331)"/>
        </g>
        <g transform="translate(-1963 -4376)">
            <path id="prefix__Celsius_Degree_Symbol-35" d="M23.866 26.669a17.5 17.5 0 1017.5 17.5 17.526 17.526 0 00-17.5-17.5zm0 24.767a7.266 7.266 0 117.262-7.269 7.273 7.273 0 01-7.262 7.269z" class="prefix__cls-3" data-name="Celsius Degree Symbol" transform="translate(2352.643 4550.331)"/>
        </g>
        <g transform="translate(-1897 -4376)">
            <path id="prefix__Celsius_Degree_Symbol-36" d="M23.866 26.669a17.5 17.5 0 1017.5 17.5 17.526 17.526 0 00-17.5-17.5zm0 24.767a7.266 7.266 0 117.262-7.269 7.273 7.273 0 01-7.262 7.269z" class="prefix__cls-3" data-name="Celsius Degree Symbol" transform="translate(2352.643 4550.331)"/>
        </g>
        <g transform="translate(-1831 -4376)">
            <path id="prefix__Celsius_Degree_Symbol-37" d="M23.866 26.669a17.5 17.5 0 1017.5 17.5 17.526 17.526 0 00-17.5-17.5zm0 24.767a7.266 7.266 0 117.262-7.269 7.273 7.273 0 01-7.262 7.269z" class="prefix__cls-3" data-name="Celsius Degree Symbol" transform="translate(2352.643 4550.331)"/>
        </g>
        <g transform="translate(-2359 -4309)">
            <path id="prefix__Celsius_Degree_Symbol-38" d="M23.866 26.669a17.5 17.5 0 1017.5 17.5 17.526 17.526 0 00-17.5-17.5zm0 24.767a7.266 7.266 0 117.262-7.269 7.273 7.273 0 01-7.262 7.269z" class="prefix__cls-3" data-name="Celsius Degree Symbol" transform="translate(2352.643 4550.331)"/>
        </g>
        <g transform="translate(-2293 -4309)">
            <path id="prefix__Celsius_Degree_Symbol-39" d="M23.866 26.669a17.5 17.5 0 1017.5 17.5 17.526 17.526 0 00-17.5-17.5zm0 24.767a7.266 7.266 0 117.262-7.269 7.273 7.273 0 01-7.262 7.269z" class="prefix__cls-3" data-name="Celsius Degree Symbol" transform="translate(2352.643 4550.331)"/>
        </g>
        <g transform="translate(-2227 -4309)">
            <path id="prefix__Celsius_Degree_Symbol-40" d="M23.866 26.669a17.5 17.5 0 1017.5 17.5 17.526 17.526 0 00-17.5-17.5zm0 24.767a7.266 7.266 0 117.262-7.269 7.273 7.273 0 01-7.262 7.269z" class="prefix__cls-3" data-name="Celsius Degree Symbol" transform="translate(2352.643 4550.331)"/>
        </g>
        <g transform="translate(-2161 -4309)">
            <path id="prefix__Celsius_Degree_Symbol-41" d="M23.866 26.669a17.5 17.5 0 1017.5 17.5 17.526 17.526 0 00-17.5-17.5zm0 24.767a7.266 7.266 0 117.262-7.269 7.273 7.273 0 01-7.262 7.269z" class="prefix__cls-3" data-name="Celsius Degree Symbol" transform="translate(2352.643 4550.331)"/>
        </g>
        <g transform="translate(-2095 -4309)">
            <path id="prefix__Celsius_Degree_Symbol-42" d="M23.866 26.669a17.5 17.5 0 1017.5 17.5 17.526 17.526 0 00-17.5-17.5zm0 24.767a7.266 7.266 0 117.262-7.269 7.273 7.273 0 01-7.262 7.269z" class="prefix__cls-3" data-name="Celsius Degree Symbol" transform="translate(2352.643 4550.331)"/>
        </g>
        <g transform="translate(-2029 -4309)">
            <path id="prefix__Celsius_Degree_Symbol-43" d="M23.866 26.669a17.5 17.5 0 1017.5 17.5 17.526 17.526 0 00-17.5-17.5zm0 24.767a7.266 7.266 0 117.262-7.269 7.273 7.273 0 01-7.262 7.269z" class="prefix__cls-3" data-name="Celsius Degree Symbol" transform="translate(2352.643 4550.331)"/>
        </g>
        <g transform="translate(-1963 -4309)">
            <path id="prefix__Celsius_Degree_Symbol-44" d="M23.866 26.669a17.5 17.5 0 1017.5 17.5 17.526 17.526 0 00-17.5-17.5zm0 24.767a7.266 7.266 0 117.262-7.269 7.273 7.273 0 01-7.262 7.269z" class="prefix__cls-3" data-name="Celsius Degree Symbol" transform="translate(2352.643 4550.331)"/>
        </g>
        <g transform="translate(-1897 -4309)">
            <path id="prefix__Celsius_Degree_Symbol-45" d="M23.866 26.669a17.5 17.5 0 1017.5 17.5 17.526 17.526 0 00-17.5-17.5zm0 24.767a7.266 7.266 0 117.262-7.269 7.273 7.273 0 01-7.262 7.269z" class="prefix__cls-3" data-name="Celsius Degree Symbol" transform="translate(2352.643 4550.331)"/>
        </g>
        <g transform="translate(-1831 -4309)">
            <path id="prefix__Celsius_Degree_Symbol-46" d="M23.866 26.669a17.5 17.5 0 1017.5 17.5 17.526 17.526 0 00-17.5-17.5zm0 24.767a7.266 7.266 0 117.262-7.269 7.273 7.273 0 01-7.262 7.269z" class="prefix__cls-3" data-name="Celsius Degree Symbol" transform="translate(2352.643 4550.331)"/>
        </g>
        <g transform="translate(-2359 -4242)">
            <path id="prefix__Celsius_Degree_Symbol-47" d="M23.866 26.669a17.5 17.5 0 1017.5 17.5 17.526 17.526 0 00-17.5-17.5zm0 24.767a7.266 7.266 0 117.262-7.269 7.273 7.273 0 01-7.262 7.269z" class="prefix__cls-3" data-name="Celsius Degree Symbol" transform="translate(2352.643 4550.331)"/>
        </g>
        <g transform="translate(-2293 -4242)">
            <path id="prefix__Celsius_Degree_Symbol-48" d="M23.866 26.669a17.5 17.5 0 1017.5 17.5 17.526 17.526 0 00-17.5-17.5zm0 24.767a7.266 7.266 0 117.262-7.269 7.273 7.273 0 01-7.262 7.269z" class="prefix__cls-3" data-name="Celsius Degree Symbol" transform="translate(2352.643 4550.331)"/>
        </g>
        <g transform="translate(-2227 -4242)">
            <path id="prefix__Celsius_Degree_Symbol-49" d="M23.866 26.669a17.5 17.5 0 1017.5 17.5 17.526 17.526 0 00-17.5-17.5zm0 24.767a7.266 7.266 0 117.262-7.269 7.273 7.273 0 01-7.262 7.269z" class="prefix__cls-3" data-name="Celsius Degree Symbol" transform="translate(2352.643 4550.331)"/>
        </g>
        <g transform="translate(-2161 -4242)">
            <path id="prefix__Celsius_Degree_Symbol-50" d="M23.866 26.669a17.5 17.5 0 1017.5 17.5 17.526 17.526 0 00-17.5-17.5zm0 24.767a7.266 7.266 0 117.262-7.269 7.273 7.273 0 01-7.262 7.269z" class="prefix__cls-3" data-name="Celsius Degree Symbol" transform="translate(2352.643 4550.331)"/>
        </g>
        <g transform="translate(-2095 -4242)">
            <path id="prefix__Celsius_Degree_Symbol-51" d="M23.866 26.669a17.5 17.5 0 1017.5 17.5 17.526 17.526 0 00-17.5-17.5zm0 24.767a7.266 7.266 0 117.262-7.269 7.273 7.273 0 01-7.262 7.269z" class="prefix__cls-3" data-name="Celsius Degree Symbol" transform="translate(2352.643 4550.331)"/>
        </g>
        <g transform="translate(-2029 -4242)">
            <path id="prefix__Celsius_Degree_Symbol-52" d="M23.866 26.669a17.5 17.5 0 1017.5 17.5 17.526 17.526 0 00-17.5-17.5zm0 24.767a7.266 7.266 0 117.262-7.269 7.273 7.273 0 01-7.262 7.269z" class="prefix__cls-3" data-name="Celsius Degree Symbol" transform="translate(2352.643 4550.331)"/>
        </g>
        <g transform="translate(-1963 -4242)">
            <path id="prefix__Celsius_Degree_Symbol-53" d="M23.866 26.669a17.5 17.5 0 1017.5 17.5 17.526 17.526 0 00-17.5-17.5zm0 24.767a7.266 7.266 0 117.262-7.269 7.273 7.273 0 01-7.262 7.269z" class="prefix__cls-3" data-name="Celsius Degree Symbol" transform="translate(2352.643 4550.331)"/>
        </g>
        <g transform="translate(-1897 -4242)">
            <path id="prefix__Celsius_Degree_Symbol-54" d="M23.866 26.669a17.5 17.5 0 1017.5 17.5 17.526 17.526 0 00-17.5-17.5zm0 24.767a7.266 7.266 0 117.262-7.269 7.273 7.273 0 01-7.262 7.269z" class="prefix__cls-3" data-name="Celsius Degree Symbol" transform="translate(2352.643 4550.331)"/>
        </g>
        <g transform="translate(-1831 -4242)">
            <path id="prefix__Celsius_Degree_Symbol-55" d="M23.866 26.669a17.5 17.5 0 1017.5 17.5 17.526 17.526 0 00-17.5-17.5zm0 24.767a7.266 7.266 0 117.262-7.269 7.273 7.273 0 01-7.262 7.269z" class="prefix__cls-3" data-name="Celsius Degree Symbol" transform="translate(2352.643 4550.331)"/>
        </g>
        <g transform="translate(-2359 -4175)">
            <path id="prefix__Celsius_Degree_Symbol-56" d="M23.866 26.669a17.5 17.5 0 1017.5 17.5 17.526 17.526 0 00-17.5-17.5zm0 24.767a7.266 7.266 0 117.262-7.269 7.273 7.273 0 01-7.262 7.269z" class="prefix__cls-3" data-name="Celsius Degree Symbol" transform="translate(2352.643 4550.331)"/>
        </g>
        <g transform="translate(-2293 -4175)">
            <path id="prefix__Celsius_Degree_Symbol-57" d="M23.866 26.669a17.5 17.5 0 1017.5 17.5 17.526 17.526 0 00-17.5-17.5zm0 24.767a7.266 7.266 0 117.262-7.269 7.273 7.273 0 01-7.262 7.269z" class="prefix__cls-3" data-name="Celsius Degree Symbol" transform="translate(2352.643 4550.331)"/>
        </g>
        <g transform="translate(-2227 -4175)">
            <path id="prefix__Celsius_Degree_Symbol-58" d="M23.866 26.669a17.5 17.5 0 1017.5 17.5 17.526 17.526 0 00-17.5-17.5zm0 24.767a7.266 7.266 0 117.262-7.269 7.273 7.273 0 01-7.262 7.269z" class="prefix__cls-3" data-name="Celsius Degree Symbol" transform="translate(2352.643 4550.331)"/>
        </g>
        <g transform="translate(-2161 -4175)">
            <path id="prefix__Celsius_Degree_Symbol-59" d="M23.866 26.669a17.5 17.5 0 1017.5 17.5 17.526 17.526 0 00-17.5-17.5zm0 24.767a7.266 7.266 0 117.262-7.269 7.273 7.273 0 01-7.262 7.269z" class="prefix__cls-3" data-name="Celsius Degree Symbol" transform="translate(2352.643 4550.331)"/>
        </g>
        <g transform="translate(-2095 -4175)">
            <path id="prefix__Celsius_Degree_Symbol-60" d="M23.866 26.669a17.5 17.5 0 1017.5 17.5 17.526 17.526 0 00-17.5-17.5zm0 24.767a7.266 7.266 0 117.262-7.269 7.273 7.273 0 01-7.262 7.269z" class="prefix__cls-3" data-name="Celsius Degree Symbol" transform="translate(2352.643 4550.331)"/>
        </g>
        <g transform="translate(-2029 -4175)">
            <path id="prefix__Celsius_Degree_Symbol-61" d="M23.866 26.669a17.5 17.5 0 1017.5 17.5 17.526 17.526 0 00-17.5-17.5zm0 24.767a7.266 7.266 0 117.262-7.269 7.273 7.273 0 01-7.262 7.269z" class="prefix__cls-3" data-name="Celsius Degree Symbol" transform="translate(2352.643 4550.331)"/>
        </g>
        <g transform="translate(-1963 -4175)">
            <path id="prefix__Celsius_Degree_Symbol-62" d="M23.866 26.669a17.5 17.5 0 1017.5 17.5 17.526 17.526 0 00-17.5-17.5zm0 24.767a7.266 7.266 0 117.262-7.269 7.273 7.273 0 01-7.262 7.269z" class="prefix__cls-3" data-name="Celsius Degree Symbol" transform="translate(2352.643 4550.331)"/>
        </g>
        <g transform="translate(-1897 -4175)">
            <path id="prefix__Celsius_Degree_Symbol-63" d="M23.866 26.669a17.5 17.5 0 1017.5 17.5 17.526 17.526 0 00-17.5-17.5zm0 24.767a7.266 7.266 0 117.262-7.269 7.273 7.273 0 01-7.262 7.269z" class="prefix__cls-3" data-name="Celsius Degree Symbol" transform="translate(2352.643 4550.331)"/>
        </g>
        <g transform="translate(-1831 -4175)">
            <path id="prefix__Celsius_Degree_Symbol-64" d="M23.866 26.669a17.5 17.5 0 1017.5 17.5 17.526 17.526 0 00-17.5-17.5zm0 24.767a7.266 7.266 0 117.262-7.269 7.273 7.273 0 01-7.262 7.269z" class="prefix__cls-3" data-name="Celsius Degree Symbol" transform="translate(2352.643 4550.331)"/>
        </g>
        <g transform="translate(-2359 -4108)">
            <path id="prefix__Celsius_Degree_Symbol-65" d="M23.866 26.669a17.5 17.5 0 1017.5 17.5 17.526 17.526 0 00-17.5-17.5zm0 24.767a7.266 7.266 0 117.262-7.269 7.273 7.273 0 01-7.262 7.269z" class="prefix__cls-3" data-name="Celsius Degree Symbol" transform="translate(2352.643 4550.331)"/>
        </g>
        <g transform="translate(-2293 -4108)">
            <path id="prefix__Celsius_Degree_Symbol-66" d="M23.866 26.669a17.5 17.5 0 1017.5 17.5 17.526 17.526 0 00-17.5-17.5zm0 24.767a7.266 7.266 0 117.262-7.269 7.273 7.273 0 01-7.262 7.269z" class="prefix__cls-3" data-name="Celsius Degree Symbol" transform="translate(2352.643 4550.331)"/>
        </g>
        <g transform="translate(-2227 -4108)">
            <path id="prefix__Celsius_Degree_Symbol-67" d="M23.866 26.669a17.5 17.5 0 1017.5 17.5 17.526 17.526 0 00-17.5-17.5zm0 24.767a7.266 7.266 0 117.262-7.269 7.273 7.273 0 01-7.262 7.269z" class="prefix__cls-3" data-name="Celsius Degree Symbol" transform="translate(2352.643 4550.331)"/>
        </g>
        <g transform="translate(-2161 -4108)">
            <path id="prefix__Celsius_Degree_Symbol-68" d="M23.866 26.669a17.5 17.5 0 1017.5 17.5 17.526 17.526 0 00-17.5-17.5zm0 24.767a7.266 7.266 0 117.262-7.269 7.273 7.273 0 01-7.262 7.269z" class="prefix__cls-3" data-name="Celsius Degree Symbol" transform="translate(2352.643 4550.331)"/>
        </g>
        <g transform="translate(-2095 -4108)">
            <path id="prefix__Celsius_Degree_Symbol-69" d="M23.866 26.669a17.5 17.5 0 1017.5 17.5 17.526 17.526 0 00-17.5-17.5zm0 24.767a7.266 7.266 0 117.262-7.269 7.273 7.273 0 01-7.262 7.269z" class="prefix__cls-3" data-name="Celsius Degree Symbol" transform="translate(2352.643 4550.331)"/>
        </g>
        <g transform="translate(-2029 -4108)">
            <path id="prefix__Celsius_Degree_Symbol-70" d="M23.866 26.669a17.5 17.5 0 1017.5 17.5 17.526 17.526 0 00-17.5-17.5zm0 24.767a7.266 7.266 0 117.262-7.269 7.273 7.273 0 01-7.262 7.269z" class="prefix__cls-3" data-name="Celsius Degree Symbol" transform="translate(2352.643 4550.331)"/>
        </g>
        <g transform="translate(-1963 -4108)">
            <path id="prefix__Celsius_Degree_Symbol-71" d="M23.866 26.669a17.5 17.5 0 1017.5 17.5 17.526 17.526 0 00-17.5-17.5zm0 24.767a7.266 7.266 0 117.262-7.269 7.273 7.273 0 01-7.262 7.269z" class="prefix__cls-3" data-name="Celsius Degree Symbol" transform="translate(2352.643 4550.331)"/>
        </g>
        <g transform="translate(-1897 -4108)">
            <path id="prefix__Celsius_Degree_Symbol-72" d="M23.866 26.669a17.5 17.5 0 1017.5 17.5 17.526 17.526 0 00-17.5-17.5zm0 24.767a7.266 7.266 0 117.262-7.269 7.273 7.273 0 01-7.262 7.269z" class="prefix__cls-3" data-name="Celsius Degree Symbol" transform="translate(2352.643 4550.331)"/>
        </g>
        <g transform="translate(-1831 -4108)">
            <path id="prefix__Celsius_Degree_Symbol-73" d="M23.866 26.669a17.5 17.5 0 1017.5 17.5 17.526 17.526 0 00-17.5-17.5zm0 24.767a7.266 7.266 0 117.262-7.269 7.273 7.273 0 01-7.262 7.269z" class="prefix__cls-3" data-name="Celsius Degree Symbol" transform="translate(2352.643 4550.331)"/>
        </g>
        <g transform="translate(-2359 -4041)">
            <path id="prefix__Celsius_Degree_Symbol-74" d="M23.866 26.669a17.5 17.5 0 1017.5 17.5 17.526 17.526 0 00-17.5-17.5zm0 24.767a7.266 7.266 0 117.262-7.269 7.273 7.273 0 01-7.262 7.269z" class="prefix__cls-3" data-name="Celsius Degree Symbol" transform="translate(2352.643 4550.331)"/>
        </g>
        <g transform="translate(-2293 -4041)">
            <path id="prefix__Celsius_Degree_Symbol-75" d="M23.866 26.669a17.5 17.5 0 1017.5 17.5 17.526 17.526 0 00-17.5-17.5zm0 24.767a7.266 7.266 0 117.262-7.269 7.273 7.273 0 01-7.262 7.269z" class="prefix__cls-3" data-name="Celsius Degree Symbol" transform="translate(2352.643 4550.331)"/>
        </g>
        <g transform="translate(-2227 -4041)">
            <path id="prefix__Celsius_Degree_Symbol-76" d="M23.866 26.669a17.5 17.5 0 1017.5 17.5 17.526 17.526 0 00-17.5-17.5zm0 24.767a7.266 7.266 0 117.262-7.269 7.273 7.273 0 01-7.262 7.269z" class="prefix__cls-3" data-name="Celsius Degree Symbol" transform="translate(2352.643 4550.331)"/>
        </g>
        <g transform="translate(-2161 -4041)">
            <path id="prefix__Celsius_Degree_Symbol-77" d="M23.866 26.669a17.5 17.5 0 1017.5 17.5 17.526 17.526 0 00-17.5-17.5zm0 24.767a7.266 7.266 0 117.262-7.269 7.273 7.273 0 01-7.262 7.269z" class="prefix__cls-3" data-name="Celsius Degree Symbol" transform="translate(2352.643 4550.331)"/>
        </g>
        <g transform="translate(-2095 -4041)">
            <path id="prefix__Celsius_Degree_Symbol-78" d="M23.866 26.669a17.5 17.5 0 1017.5 17.5 17.526 17.526 0 00-17.5-17.5zm0 24.767a7.266 7.266 0 117.262-7.269 7.273 7.273 0 01-7.262 7.269z" class="prefix__cls-3" data-name="Celsius Degree Symbol" transform="translate(2352.643 4550.331)"/>
        </g>
        <g transform="translate(-2029 -4041)">
            <path id="prefix__Celsius_Degree_Symbol-79" d="M23.866 26.669a17.5 17.5 0 1017.5 17.5 17.526 17.526 0 00-17.5-17.5zm0 24.767a7.266 7.266 0 117.262-7.269 7.273 7.273 0 01-7.262 7.269z" class="prefix__cls-3" data-name="Celsius Degree Symbol" transform="translate(2352.643 4550.331)"/>
        </g>
        <g transform="translate(-1963 -4041)">
            <path id="prefix__Celsius_Degree_Symbol-80" d="M23.866 26.669a17.5 17.5 0 1017.5 17.5 17.526 17.526 0 00-17.5-17.5zm0 24.767a7.266 7.266 0 117.262-7.269 7.273 7.273 0 01-7.262 7.269z" class="prefix__cls-3" data-name="Celsius Degree Symbol" transform="translate(2352.643 4550.331)"/>
        </g>
        <g transform="translate(-1897 -4041)">
            <path id="prefix__Celsius_Degree_Symbol-81" d="M23.866 26.669a17.5 17.5 0 1017.5 17.5 17.526 17.526 0 00-17.5-17.5zm0 24.767a7.266 7.266 0 117.262-7.269 7.273 7.273 0 01-7.262 7.269z" class="prefix__cls-3" data-name="Celsius Degree Symbol" transform="translate(2352.643 4550.331)"/>
        </g>
        <g transform="translate(-1831 -4041)">
            <path id="prefix__Celsius_Degree_Symbol-82" d="M23.866 26.669a17.5 17.5 0 1017.5 17.5 17.526 17.526 0 00-17.5-17.5zm0 24.767a7.266 7.266 0 117.262-7.269 7.273 7.273 0 01-7.262 7.269z" class="prefix__cls-3" data-name="Celsius Degree Symbol" transform="translate(2352.643 4550.331)"/>
        </g>
    </g>
</svg>
